# xmcd
#
# Track frame offsets:
#	150
#	14630
#	27466
#	40255
#	52625
#	68110
#	82199
#	96596
#	109104
#	124673
#	138318
#	151067
#	163985
#	178280
#	190858
#	204085
#	216774
#	230231
#	244400
#	258652
#	271493
#	284766
#	296669
#	309388
#	324181
#
# Disc length: 4504 seconds
#
# Revision: 0
# Processed by: cddbd v1.5.1PL2 Copyright (c) Steve Scherf et al.
# Submitted via: EasyCDDAExtractor 9.0.0.1
#
DISCID=80119619
DTITLE=Various Artist - Applachian Stomp Down - Disc B
DYEAR=2006
DGENRE=Country
TTITLE0=Grayson and Whitter - The Red And Green Signal Lights
TTITLE1=Grayson and Whitter - Jokin' Henry
TTITLE2=Grayson and Whitter - Nine Pound Hammer
TTITLE3=Grayson and Whitter - Short Life Of Trouble
TTITLE4=Grayson and Whitter - I've Always Been A Rambler
TTITLE5=Grayson and Whitter - Where Are You Going Alice?
TTITLE6=Grayson and Whitter - A Dark Road Is A Hard Road To Travel
TTITLE7=Grayson and Whitter - Barnyard Serenade
TTITLE8=Grayson and Whitter - Little Maggie With A Dram Glass In Her Hand
TTITLE9=Grayson and Whitter - On The Banks Of The Tennessee
TTITLE10=Grayson and Whitter - Never Be As Fast As I Have Been
TTITLE11=Grayson and Whitter - I Have Lost You Darling, True Love
TTITLE12=Grayson and Whitter - Tom Dooley
TTITLE13=Grayson and Whitter - Going Down The Lee Highway
TTITLE14=Grayson and Whitter - I Saw A Man At The Close Of Day
TTITLE15=Grayson and Whitter - What You Gonna Do With The Baby
TTITLE16=Mr. and Mrs. J.W. Baker - The Newmarket Wreck
TTITLE17=Mr. and Mrs. J.W. Baker - On The Banks Of the Sunny Tennessee
TTITLE18=Tennessee Rambler's - Arkansas Traveler
TTITLE19=Tennessee Rambler's - Preacher Got Drunk And Laid His Bible Down
TTITLE20=McCartt Brother's and Patterson - Green Valley Waltz
TTITLE21=Perry Country Music Makers - By The Cottage Door
TTITLE22=Charlie Bowman - Hickman Rag
TTITLE23=Charlie Bowman and His Brothers - Roll On Buddy
TTITLE24=Charlie Bowman and His Brothers - Forky Deer
EXTD=
EXTT0=
EXTT1=
EXTT2=
EXTT3=
EXTT4=
EXTT5=
EXTT6=
EXTT7=
EXTT8=
EXTT9=
EXTT10=
EXTT11=
EXTT12=
EXTT13=
EXTT14=
EXTT15=
EXTT16=
EXTT17=
EXTT18=
EXTT19=
EXTT20=
EXTT21=
EXTT22=
EXTT23=
EXTT24=
PLAYORDER=
